<svg width="28" height="32" viewBox="0 0 28 32" fill="none" xmlns="http://www.w3.org/2000/svg">
<g id="arrow/left-md">
<path id="Vector" d="M1.50845 16.9427C1.28974 16.6926 1.16687 16.3535 1.16687 16C1.16687 15.6464 1.28974 15.3074 1.50845 15.0573L8.50845 7.05733C8.72849 6.81445 9.02319 6.68006 9.32909 6.68309C9.63499 6.68613 9.9276 6.82636 10.1439 7.07357C10.3602 7.32078 10.4829 7.6552 10.4856 8.00479C10.4882 8.35439 10.3706 8.69119 10.1581 8.94266L5.14962 14.6667H25.6666C25.976 14.6667 26.2728 14.8071 26.4916 15.0572C26.7104 15.3072 26.8333 15.6464 26.8333 16C26.8333 16.3536 26.7104 16.6928 26.4916 16.9428C26.2728 17.1929 25.976 17.3333 25.6666 17.3333H5.14962L10.1581 23.0573C10.3706 23.3088 10.4882 23.6456 10.4856 23.9952C10.4829 24.3448 10.3602 24.6792 10.1439 24.9264C9.9276 25.1736 9.63499 25.3139 9.32909 25.3169C9.02319 25.3199 8.72849 25.1855 8.50845 24.9427L1.50845 16.9427Z" fill="white"/>
</g>
</svg>
